<?xml version="1.0" standalone="no"?>
<!DOCTYPE svg PUBLIC "-//W3C//DTD SVG 20010904//EN"
 "http://www.w3.org/TR/2001/REC-SVG-20010904/DTD/svg10.dtd">
<svg version="1.0" xmlns="http://www.w3.org/2000/svg"
 width="260.000000pt" height="260.000000pt" viewBox="0 0 260.000000 260.000000"
 preserveAspectRatio="xMidYMid meet">
<metadata>
Created by potrace 1.11, written by Peter Selinger 2001-2013
</metadata>
<g transform="translate(0.000000,260.000000) scale(0.100000,-0.100000)"
fill="#000000" stroke="none">
<path d="M0 1300 l0 -1300 1300 0 1300 0 0 1300 0 1300 -1300 0 -1300 0 0
-1300z m1119 855 c61 -32 105 -104 193 -315 37 -91 68 -170 68 -176 0 -6 7
-18 16 -25 15 -12 21 -9 51 26 18 21 44 58 57 81 24 43 39 63 154 202 130 158
223 215 362 220 74 3 91 0 130 -21 82 -43 130 -134 130 -246 0 -96 -120 -239
-234 -278 -66 -22 -221 -21 -308 3 -112 30 -109 30 -150 -20 -21 -25 -38 -49
-38 -54 0 -5 -11 -19 -25 -32 -14 -13 -25 -29 -25 -36 0 -6 -7 -17 -15 -24
-21 -17 -19 -85 4 -134 42 -89 101 -223 101 -230 0 -3 18 -43 39 -89 21 -45
49 -110 61 -145 26 -70 84 -132 125 -132 33 0 91 53 120 109 13 25 43 75 67
111 48 72 76 86 101 50 14 -20 14 -28 0 -74 -42 -143 -139 -299 -263 -423 -98
-98 -146 -119 -243 -109 -118 12 -165 65 -292 326 -114 235 -120 245 -141 245
-12 0 -28 -18 -46 -50 -14 -27 -34 -54 -42 -61 -9 -6 -16 -14 -16 -18 0 -23
-68 -138 -124 -209 -112 -144 -245 -225 -386 -234 -151 -11 -232 37 -267 156
-57 196 107 401 322 401 71 0 150 -25 211 -66 72 -49 101 -33 176 102 15 27
46 78 68 113 47 75 51 120 19 182 -11 23 -36 82 -55 132 -19 51 -43 108 -53
127 -10 19 -24 52 -31 73 -13 41 -65 145 -93 188 -19 29 -56 49 -91 49 -34 0
-83 -60 -139 -167 -51 -99 -74 -121 -107 -103 -61 33 31 261 166 411 86 94
120 123 184 151 87 38 200 44 259 13z"/>
</g>
</svg>
